<svg xmlns="http://www.w3.org/2000/svg" viewBox="0 0 500 500" width="100%" height="100%">
  <defs>
    <linearGradient id="goldGradient" x1="0%" y1="0%" x2="100%" y2="100%">
      <stop offset="0%" stop-color="#F3E5AB" />
      <stop offset="30%" stop-color="#D4AF37" />
      <stop offset="70%" stop-color="#AA7C11" />
      <stop offset="100%" stop-color="#F3E5AB" />
    </linearGradient>
    <filter id="subtleShadow" x="-10%" y="-10%" width="120%" height="120%">
      <feDropShadow dx="2" dy="3" stdDeviation="3" flood-color="#000" flood-opacity="0.45"/>
    </filter>
    <clipPath id="circleClip">
      <circle cx="250" cy="250" r="215"/>
    </clipPath>
  </defs>
  <circle cx="250" cy="250" r="238" fill="url(#goldGradient)" />
  <circle cx="250" cy="250" r="224" fill="#6B4E0A" />
  <circle cx="250" cy="250" r="215" fill="#0A1D37" />
  <g clip-path="url(#circleClip)" filter="url(#subtleShadow)">
    <path d="M 213 105 H 287 V 185 H 365 V 260 H 287 V 340 H 213 V 260 H 135 V 185 H 213 Z" fill="url(#goldGradient)" />
    <path d="M 80 370 C 75 345, 80 315, 95 290 C 105 272, 120 258, 135 250 C 133 264, 130 278, 132 292 C 118 302, 108 318, 103 337 C 118 316, 130 300, 140 295 C 139 310, 140 328, 145 343 C 155 325, 162 308, 168 300 C 168 315, 166 332, 170 347 C 180 330, 187 314, 192 305 C 193 320, 192 337, 195 352 C 205 337, 212 318, 216 308 C 218 325, 217 343, 218 358 C 230 342, 237 322, 238 310 C 240 310, 243 312, 244 318 C 244 335, 238 360, 228 378 C 210 405, 178 418, 148 418 C 118 418, 90 405, 80 390 Z" fill="url(#goldGradient)" />
    <path d="M 420 370 C 425 345, 420 315, 405 290 C 395 272, 380 258, 365 250 C 367 264, 370 278, 368 292 C 382 302, 392 318, 397 337 C 382 316, 370 300, 360 295 C 361 310, 360 328, 355 343 C 345 325, 338 308, 332 300 C 332 315, 334 332, 330 347 C 320 330, 313 314, 308 305 C 307 320, 308 337, 305 352 C 295 337, 288 318, 284 308 C 282 325, 283 343, 282 358 C 270 342, 263 322, 262 310 C 260 310, 257 312, 256 318 C 256 335, 262 360, 272 378 C 290 405, 322 418, 352 418 C 382 418, 410 405, 420 390 Z" fill="url(#goldGradient)" />
  </g>
</svg>
